<?xml version="1.0" standalone="no"?>
<!DOCTYPE svg PUBLIC "-//W3C//DTD SVG 20010904//EN"
 "http://www.w3.org/TR/2001/REC-SVG-20010904/DTD/svg10.dtd">
<svg version="1.0" xmlns="http://www.w3.org/2000/svg"
 width="1080.000000pt" height="1080.000000pt" viewBox="0 0 1080.000000 1080.000000"
 preserveAspectRatio="xMidYMid meet">
<metadata>
Created by potrace 1.16, written by Peter Selinger 2001-2019
</metadata>
<g transform="translate(0.000000,1080.000000) scale(0.100000,-0.100000)"
fill="#000000" stroke="none">
<path d="M4767 7390 c-88 -22 -178 -85 -226 -157 l-31 -46 -78 2 c-226 6 -441
-125 -546 -333 -25 -50 -31 -54 -70 -60 -62 -10 -158 -58 -212 -108 -98 -89
-154 -209 -169 -358 -7 -75 -8 -75 -69 -140 -102 -109 -146 -226 -146 -390 0
-100 8 -141 42 -227 l20 -53 -28 -97 c-27 -91 -29 -110 -29 -273 0 -152 3
-186 23 -259 29 -108 79 -216 137 -296 25 -35 45 -69 45 -75 0 -24 54 -115 95
-159 36 -38 44 -55 50 -101 33 -249 197 -423 424 -452 l79 -10 12 -42 c38
-125 137 -249 240 -299 95 -46 172 -61 311 -60 202 0 355 46 471 140 26 21 66
49 89 63 52 31 101 95 131 168 l23 57 0 1540 c0 1403 -1 1545 -17 1600 -9 33
-21 86 -27 119 -23 126 -91 215 -209 273 -73 36 -81 38 -186 40 -61 1 -128 -2
-149 -7z m227 -284 c37 -23 54 -64 65 -147 9 -73 8 -76 -26 -148 -40 -83 -114
-165 -176 -195 -21 -9 -68 -22 -105 -28 -87 -13 -112 -35 -112 -97 1 -49 12
-71 47 -89 73 -39 280 24 376 116 l27 26 -2 -1335 c-3 -1087 -5 -1339 -16
-1352 -12 -14 -18 -14 -55 -1 -62 22 -105 69 -123 134 -21 76 -32 96 -61 109
-43 20 -82 13 -115 -20 -29 -29 -30 -33 -24 -91 10 -100 66 -204 138 -257 l38
-28 -62 -18 c-42 -12 -98 -19 -168 -19 -88 0 -113 3 -155 22 -91 42 -126 92
-152 220 -8 43 -17 87 -20 98 -7 31 41 125 92 182 47 52 132 103 205 122 25 7
85 16 134 20 80 6 92 10 113 34 47 54 24 140 -43 160 -21 6 -21 7 7 86 53 150
56 308 7 410 -27 56 -102 130 -156 154 -77 35 -152 -5 -152 -80 0 -48 7 -60
61 -99 27 -19 58 -50 69 -68 39 -63 20 -184 -52 -338 l-40 -87 -60 -20 c-140
-48 -257 -152 -325 -289 -22 -43 -42 -88 -45 -101 -5 -18 -13 -22 -45 -22 -70
0 -116 19 -165 70 -58 60 -78 121 -78 236 0 74 -3 86 -25 113 -14 16 -36 33
-48 37 -37 11 -67 46 -82 97 -8 26 -34 75 -59 108 -92 122 -136 257 -136 415
0 134 3 141 44 109 44 -33 106 -60 201 -85 218 -58 342 -163 367 -312 11 -64
3 -121 -32 -245 -23 -81 12 -133 90 -133 35 0 51 5 67 23 53 57 89 295 64 419
-18 84 -67 175 -130 240 l-56 56 32 12 c62 22 90 89 61 143 -29 54 -71 59
-185 21 -168 -56 -291 -41 -389 49 -51 46 -54 52 -54 96 0 33 -7 57 -26 84
-75 111 -73 264 6 364 11 14 50 46 87 70 55 36 74 44 100 40 81 -13 119 -76
135 -224 10 -89 13 -101 41 -127 26 -24 35 -28 71 -23 28 4 49 15 65 34 23 26
23 32 18 123 -8 112 -24 179 -63 250 -49 90 -142 151 -251 165 -52 7 -52 7
-46 38 6 37 36 104 55 128 7 9 31 28 52 43 33 22 50 26 108 26 44 0 83 6 104
16 28 13 41 14 82 5 77 -19 149 -66 183 -119 61 -96 72 -193 43 -376 -23 -142
-16 -339 15 -418 31 -80 96 -148 173 -183 111 -51 319 -45 374 11 36 35 33 96
-7 136 -29 30 -32 30 -87 22 -100 -15 -165 -10 -204 14 -79 49 -105 177 -74
368 19 117 21 289 5 366 -18 86 -67 178 -128 239 -58 58 -155 112 -223 124
-21 4 -38 11 -38 16 0 5 26 35 59 68 96 96 200 123 318 81 72 -25 119 -25 160
0 37 22 49 41 58 95 10 54 30 92 61 112 52 34 146 33 198 -1z"/>
<path d="M5758 7381 c-72 -23 -112 -49 -165 -103 -57 -58 -89 -128 -107 -229
-8 -46 -20 -98 -26 -114 -7 -21 -9 -504 -8 -1580 l3 -1550 27 -57 c33 -71 97
-141 153 -168 24 -12 49 -28 57 -37 25 -31 117 -83 190 -107 41 -14 121 -30
183 -36 335 -34 553 82 645 343 l18 52 84 13 c111 17 195 58 269 134 85 86
149 228 149 331 0 33 7 46 46 83 29 28 59 73 80 120 20 42 55 105 79 141 51
76 97 182 127 291 17 63 21 106 21 237 0 144 -3 170 -28 260 -15 55 -27 107
-27 115 0 8 13 49 28 90 24 64 28 91 28 185 1 67 -5 130 -13 160 -26 90 -80
186 -142 248 -57 56 -59 61 -59 110 0 74 -25 171 -63 241 -65 122 -202 227
-318 242 -29 4 -49 12 -49 19 0 26 -99 163 -158 216 -121 112 -224 153 -384
154 l-108 0 -11 28 c-19 45 -122 133 -186 158 -82 32 -254 37 -335 10z m265
-290 c32 -31 66 -138 67 -207 0 -66 36 -165 75 -211 47 -55 143 -103 205 -103
72 0 109 45 96 115 -7 35 -46 75 -73 75 -22 0 -68 30 -83 54 -7 11 -16 35 -21
53 -7 32 -6 33 35 44 154 42 322 -75 392 -274 14 -39 13 -43 -20 -113 -37 -77
-93 -147 -137 -170 -50 -25 -108 -18 -197 26 -94 47 -120 49 -161 14 -27 -22
-31 -32 -31 -74 0 -42 4 -52 31 -75 83 -69 215 -111 323 -102 142 12 258 103
340 267 25 51 46 99 46 107 0 12 7 14 32 9 47 -9 99 -55 128 -112 23 -44 25
-60 25 -172 l0 -124 36 -31 c20 -18 52 -41 70 -52 75 -45 127 -168 115 -269
-11 -88 -17 -90 -116 -50 -187 77 -365 114 -540 114 -130 0 -218 -16 -305 -54
l-59 -27 -69 21 c-93 29 -162 93 -172 163 -4 27 -3 66 4 92 17 67 14 101 -12
131 -30 35 -103 40 -136 10 -58 -53 -69 -260 -19 -368 40 -87 104 -142 236
-204 2 -1 -11 -26 -27 -56 -84 -149 -114 -338 -71 -452 53 -140 210 -236 386
-236 86 0 114 23 114 91 0 70 -25 94 -108 102 -121 13 -204 67 -218 143 -8 45
16 144 53 220 128 263 421 303 879 123 l100 -40 28 -72 c77 -197 72 -394 -15
-571 -17 -34 -38 -72 -49 -86 l-19 -25 -36 19 c-55 30 -122 107 -135 157 -13
49 -8 110 16 182 10 30 14 61 9 83 -12 69 -106 95 -160 44 -37 -35 -60 -131
-60 -255 0 -103 2 -114 32 -177 37 -80 107 -153 187 -198 31 -18 56 -34 56
-36 0 -2 -22 -15 -49 -28 -63 -33 -81 -69 -80 -168 1 -92 -13 -140 -57 -201
-36 -49 -54 -53 -54 -12 0 41 -41 158 -75 215 -93 152 -250 236 -464 247 -225
12 -291 -11 -291 -102 0 -36 6 -51 26 -72 25 -25 27 -26 128 -19 236 16 384
-49 452 -199 12 -27 27 -74 32 -102 l9 -53 -50 0 c-59 0 -110 -27 -125 -68 -6
-15 -16 -54 -22 -87 -16 -92 -54 -162 -107 -195 -65 -42 -160 -56 -274 -42
-96 12 -199 51 -199 75 0 21 72 127 116 170 55 54 88 69 160 71 84 3 114 28
114 96 0 37 -5 51 -26 71 -23 22 -34 24 -112 24 -77 0 -95 -4 -154 -32 -79
-37 -167 -121 -224 -213 l-39 -63 -3 1494 c-2 1311 0 1499 13 1532 8 20 15 56
15 80 0 50 25 103 62 130 58 43 162 37 211 -12z"/>
</g>
</svg>
